<svg xmlns="http://www.w3.org/2000/svg" viewBox="0 0 64 64" fill="none" aria-hidden="true">
  <rect width="64" height="64" rx="16" fill="#1F6B63"/>
  <circle cx="48" cy="16" r="6.5" fill="#F0A46A"/>
  <circle cx="48" cy="16" r="4" fill="#F7D9A8"/>
  <circle cx="17" cy="27" r="4.1" fill="#F4F7F5"/>
  <path d="M11.5 45c0-5.4 2.5-9 5.5-9s5.5 3.6 5.5 9" stroke="#F4F7F5" stroke-width="3.3" stroke-linecap="round"/>
  <circle cx="32" cy="31" r="3.4" fill="#F7D9A8"/>
  <path d="M27.2 45c0-4.4 2.1-7.1 4.8-7.1S36.8 40.6 36.8 45" stroke="#F7D9A8" stroke-width="2.9" stroke-linecap="round"/>
  <circle cx="47" cy="27" r="4.1" fill="#F4F7F5"/>
  <path d="M41.5 45c0-5.4 2.5-9 5.5-9s5.5 3.6 5.5 9" stroke="#F4F7F5" stroke-width="3.3" stroke-linecap="round"/>
  <path d="M22.5 38.2c2.4 1.3 4.5 1.5 6.6 0M34.8 38.2c2.4 1.3 4.5 1.5 6.6 0" stroke="#F0A46A" stroke-width="2.1" stroke-linecap="round"/>
</svg>
